<svg width="98" height="70" viewBox="0 0 98 70" fill="none" xmlns="http://www.w3.org/2000/svg">
<path d="M0.909091 70V0.181816H38.4091V2.36363H3.09091V34H35.1364V36.1818H3.09091V70H0.909091ZM57.0653 70V0.181816H77.5199C81.429 0.181816 84.8835 1.05682 87.8835 2.80682C90.9063 4.55682 93.2699 6.96591 94.9744 10.0341C96.7017 13.1023 97.5653 16.6364 97.5653 20.6364C97.5653 24.5909 96.7017 28.1023 94.9744 31.1705C93.2699 34.2159 90.9063 36.6136 87.8835 38.3636C84.8835 40.0909 81.429 40.9545 77.5199 40.9545H58.1562V38.7727H77.5199C81.0199 38.7727 84.1108 38 86.7926 36.4545C89.4744 34.9091 91.5767 32.7727 93.0994 30.0455C94.6222 27.3182 95.3835 24.1818 95.3835 20.6364C95.3835 17.0682 94.6222 13.9091 93.0994 11.1591C91.5767 8.40909 89.4744 6.26136 86.7926 4.71591C84.1108 3.14772 81.0199 2.36363 77.5199 2.36363H59.2472V70H57.0653Z" fill="black"/>
</svg>
