<svg width="200" height="200" viewBox="0 0 200 200" fill="none" xmlns="http://www.w3.org/2000/svg">
<rect width="200" height="200" fill="white"/>
<path d="M52.9091 135V65.1818H90.4091V67.3636H55.0909V99H87.1364V101.182H55.0909V135H52.9091ZM109.065 135V65.1818H129.52C133.429 65.1818 136.884 66.0568 139.884 67.8068C142.906 69.5568 145.27 71.9659 146.974 75.0341C148.702 78.1023 149.565 81.6364 149.565 85.6364C149.565 89.5909 148.702 93.1023 146.974 96.1705C145.27 99.2159 142.906 101.614 139.884 103.364C136.884 105.091 133.429 105.955 129.52 105.955H110.156V103.773H129.52C133.02 103.773 136.111 103 138.793 101.455C141.474 99.9091 143.577 97.7727 145.099 95.0455C146.622 92.3182 147.384 89.1818 147.384 85.6364C147.384 82.0682 146.622 78.9091 145.099 76.1591C143.577 73.4091 141.474 71.2614 138.793 69.7159C136.111 68.1477 133.02 67.3636 129.52 67.3636H111.247V135H109.065Z" fill="black"/>
</svg>
